<?xml version="1.0" standalone="no"?>
<!DOCTYPE svg PUBLIC "-//W3C//DTD SVG 20010904//EN"
 "http://www.w3.org/TR/2001/REC-SVG-20010904/DTD/svg10.dtd">
<svg version="1.0" xmlns="http://www.w3.org/2000/svg"
 width="130.000000pt" height="130.000000pt" viewBox="0 0 130.000000 130.000000"
 preserveAspectRatio="xMidYMid meet">
<metadata>
Created by potrace 1.11, written by Peter Selinger 2001-2013
</metadata>
<g transform="translate(0.000000,130.000000) scale(0.100000,-0.100000)"
fill="#000000" stroke="none">
<path d="M0 650 l0 -650 650 0 650 0 0 650 0 650 -650 0 -650 0 0 -650z m380
112 c55 -27 80 -74 80 -147 0 -117 -58 -165 -197 -165 l-83 0 0 165 0 165 83
0 c58 0 92 -5 117 -18z m360 3 c0 -12 -16 -15 -80 -15 l-80 0 0 -55 0 -55 80
0 c64 0 80 -3 80 -15 0 -12 -16 -15 -80 -15 l-80 0 0 -65 0 -65 85 0 c69 0 85
-3 85 -15 0 -12 -19 -15 -110 -15 l-110 0 0 165 0 165 105 0 c87 0 105 -3 105
-15z m134 -123 l50 -133 50 135 c45 120 53 136 73 136 13 0 23 -6 22 -12 0 -7
-26 -80 -58 -163 -54 -144 -58 -150 -86 -153 -30 -3 -31 -1 -74 115 -24 65
-52 140 -63 166 l-18 48 27 -3 c26 -3 31 -13 77 -136z"/>
<path d="M230 615 l0 -135 38 1 c93 1 142 47 142 134 0 87 -49 133 -142 134
l-38 1 0 -135z"/>
</g>
</svg>
